<svg xmlns="http://www.w3.org/2000/svg" xmlns:xlink="http://www.w3.org/1999/xlink" width="100.0" height="100.0" viewBox="-80.50882841600001 44.091351483999986 24.30111013199999 19.351505832000015" preserveAspectRatio="xMinYMin meet"><g transform="matrix(1,0,0,-1,0,107.53420879999999)"><g><path fill-rule="evenodd" fill="#66cc99" stroke="#555555" stroke-width="0.48602220263999985" opacity="0.6" d="M -61.38335710000001,47.55941530000001 L -61.51790740000001,47.54334210000002 L -61.64125480000001,47.50474179999998 L -61.678315399999974,47.48142180000002 L -61.74613210000001,47.40643039999998 L -61.818780100000026,47.36378330000002 L -61.85154690000002,47.34255059999998 L -61.85246489999997,47.31061490000002 L -61.78380490000001,47.267224 L -61.76154489999999,47.2444352 L -61.772359600000016,47.2144907 L -61.813116200000024,47.19824649999998 L -61.855452300000024,47.194256300000006 L -61.92419380000001,47.19941449999999 L -62.00246770000001,47.2172061 L -62.010566100000005,47.257995600000015 L -62.00430849999998,47.315402199999994 L -61.98594409999998,47.36772769999999 L -61.95798730000001,47.405515700000024 L -61.88982170000003,47.45991789999999 L -61.65325680000001,47.605265900000006 L -61.54931770000002,47.64804750000002 L -61.47467599999999,47.65341169999999 L -61.43748590000001,47.64294690000003 L -61.39833429999999,47.6142653 L -61.38250579999999,47.587739399999975 L -61.38335710000001,47.55941530000001 z" /><path fill-rule="evenodd" fill="#66cc99" stroke="#555555" stroke-width="0.48602220263999985" opacity="0.6" d="M -74.6630556,44.998916699999995 L -74.4933934,45.06656670000001 L -74.32820559999999,45.18328709999997 L -74.47200830000003,45.30277269999999 L -74.38230650000003,45.56112890000003 L -74.6326866,45.634228399999984 L -74.91282710000002,45.63764859999998 L -75.23429679999998,45.57459319999998 L -75.51328219999999,45.50700660000001 L -75.69758610000002,45.45438849999999 L -75.77416629999999,45.40894659999998 L -75.81415900000002,45.4014396 L -75.874034,45.410349499999995 L -75.99455119999999,45.484882200000015 L -76.07092649999998,45.5052728 L -76.12799960000001,45.51269289999999 L -76.27146190000002,45.477222299999994 L -76.36895140000001,45.46305580000001 L -76.54237089999998,45.521696399999996 L -76.61699049999999,45.542830700000025 L -76.66925939999999,45.59227440000001 L -76.7234196,45.69984840000001 L -76.766053,45.835902499999975 L -76.7893924,45.866827 L -76.8333341,45.88196549999998 L -76.87432510000002,45.87701499999997 L -76.95282209999999,45.84149339999999 L -77.02588739999999,45.82888129999998 L -77.08608129999999,45.835575000000006 L -77.16941320000001,45.8688846 L -77.25111149999998,45.92560150000003 L -77.28682079999999,45.99873050000002 L -77.33793930000002,46.04739999999998 L -77.47158919999998,46.10651309999997 L -77.57901040000002,46.16084110000003 L -77.7373088,46.19342 L -77.82967880000001,46.21304780000003 L -77.99597640000002,46.24527649999999 L -78.30996699999997,46.269030199999975 L -78.62264199999998,46.311091999999974 L -78.71211110000002,46.34196850000001 L -78.93203799999998,46.496364700000015 L -79.0081025,46.60504150000003 L -79.19564839999998,46.82929999999999 L -79.36720780000002,47.021166100000016 L -79.45032900000001,47.1093654 L -79.43109149999998,47.23097999999999 L -79.44966199999999,47.27645890000002 L -79.57233719999999,47.402311699999984 L -79.58435880000002,47.45091259999998 L -79.51721140000001,47.556766400000015 L -79.51718649999998,49.28348570000003 L -79.51642349999997,51.46844809999999 L -79.51639210000002,51.5538105 L -79.46427940000001,51.61350700000003 L -79.41919380000002,51.64571160000003 L -79.37020530000001,51.65389069999998 L -79.30272880000001,51.64218410000001 L -79.2663202,51.621340299999986 L -79.2137616,51.56620659999999 L -79.07691829999999,51.507670700000006 L -79.02609130000002,51.47463620000002 L -78.98415189999997,51.339996499999984 L -78.94686519999999,51.297762999999975 L -78.87200790000003,51.325979099999984 L -78.8318286,51.36208720000002 L -78.7870469,51.50386780000002 L -78.80101610000003,51.543666099999996 L -78.9443129,51.686713499999996 L -78.95861129999997,51.731456700000024 L -78.9516337,51.778968099999986 L -78.90310950000003,51.854787699999974 L -78.79832979999998,51.97158280000002 L -78.60782990000001,52.121202100000005 L -78.5717775,52.174159799999984 L -78.55298920000001,52.25369490000003 L -78.5585916,52.35386990000001 L -78.58668549999999,52.43151990000001 L -78.76679810000002,52.66229340000001 L -78.82425089999998,52.83332139999999 L -78.94142690000001,53.07960600000001 L -78.9864533,53.2962278 L -78.99723749999998,53.512159199999985 L -79.06907360000002,53.7611086 L -79.06935470000002,53.85195399999998 L -79.0978581,53.938308800000016 L -79.15363660000003,54.017096200000026 L -79.36732,54.209146499999974 L -79.47735690000002,54.34274060000001 L -79.60094950000001,54.56425410000003 L -79.60878730000002,54.622367800000006 L -79.59340550000002,54.6508432 L -79.53168210000001,54.6940103 L -79.37290130000002,54.755106599999976 L -78.73025569999999,54.92763350000001 L -78.43905410000002,55.020572000000016 L -78.16283720000001,55.13466519999997 L -77.73376969999998,55.335099300000024 L -77.46338179999998,55.47312770000002 L -77.27650219999998,55.58713499999999 L -77.16868010000002,55.664494400000024 L -76.78587279999999,55.985193400000014 L -76.71137620000002,56.07364940000002 L -76.66511229999998,56.17017900000002 L -76.60770830000001,56.3194522 L -76.53194819999999,56.61134679999998 L -76.51479,56.77407010000002 L -76.52108240000001,56.905197199999975 L -76.54843240000002,57.05961689999998 L -76.58720720000002,57.17523139999997 L -76.67109269999997,57.34299379999999 L -76.7989637,57.55119760000002 L -76.9896822,57.80071959999998 L -77.06599849999998,57.880319499999985 L -77.18994800000002,57.98288359999998 L -77.33672430000001,58.08054240000001 L -77.50899399999997,58.17408390000003 L -77.6880607,58.25220009999998 L -78.04504680000002,58.38343950000001 L -78.21118760000002,58.464581399999986 L -78.3498414,58.557028600000024 L -78.42142469999999,58.620369700000026 L -78.47332399999999,58.68322460000002 L -78.50655490000003,58.75263389999998 L -78.51436510000002,58.85787429999999 L -78.47623750000002,58.923806300000024 L -78.1742456,59.13755250000003 L -77.92369009999999,59.33544260000002 L -77.8670783,59.4081324 L -77.75315649999999,59.60660089999999 L -77.68079519999998,59.679817000000014 L -77.514093,59.80636770000001 L -77.44521329999998,59.87254359999997 L -77.4097418,59.93768039999998 L -77.41699840000001,59.98479880000002 L -77.48491280000002,60.061182099999996 L -77.68458140000001,60.460628799999995 L -77.81307850000002,60.65709290000001 L -77.8762332,60.72649510000002 L -78.00475899999998,60.816641600000025 L -78.02997529999999,60.851986599999975 L -78.02106520000001,60.9128475 L -77.87367790000002,61.081991800000026 L -77.79650400000003,61.20430249999998 L -77.75491679999999,61.36224770000001 L -77.74805520000001,61.48600859999999 L -77.78833079999998,61.57374229999999 L -77.9600254,61.7389096 L -78.04838489999997,61.851592100000005 L -78.1108352,61.974367700000016 L -78.1343488,62.094854999999995 L -78.12330379999997,62.16594409999999 L -78.0888761,62.23955760000001 L -78.02415710000002,62.31284599999998 L -77.92977139999999,62.377885100000015 L -77.8136634,62.43397959999999 L -77.6325334,62.498880799999995 L -77.50981159999998,62.527525000000026 L -77.3675523,62.542816200000004 L -77.12416489999998,62.53818769999998 L -76.7895135,62.50092410000002 L -76.37170099999997,62.42618010000001 L -75.78657340000001,62.296273799999994 L -75.59549620000001,62.270624999999995 L -75.23882079999998,62.27279149999998 L -74.8513312,62.25602070000002 L -74.68084649999997,62.261336099999994 L -74.40800039999999,62.289911399999994 L -73.94979590000003,62.37925569999999 L -73.83371160000002,62.39643380000001 L -73.72019820000003,62.403388699999994 L -73.53503009999997,62.388219100000015 L -73.27750880000002,62.323518200000024 L -73.07244259999999,62.247665900000015 L -72.87055040000001,62.1591042 L -72.15544699999998,61.797949800000026 L -71.81712720000002,61.65001890000002 L -71.74570779999999,61.610346900000025 L -71.69564380000003,61.543946300000016 L -71.69385519999997,61.40054520000001 L -71.66420729999999,61.31449070000002 L -71.60979889999999,61.259438699999976 L -71.49547360000003,61.207468800000015 L -71.28917580000001,61.157266100000015 L -70.92021740000001,61.09467430000001 L -70.66165690000003,61.06140640000001 L -70.2543432,61.02516919999999 L -70.16150579999999,61.002168299999994 L -69.9924643,60.93551100000002 L -69.8983983,60.91579810000002 L -69.80742029999999,60.91547589999999 L -69.64913189999999,60.961807799999974 L -69.55532770000002,60.97344240000001 L -69.49112609999997,60.942611899999974 L -69.48315000000002,60.8890768 L -69.4955625,60.830764999999985 L -69.63465830000001,60.66071770000002 L -69.70185579999998,60.51696759999999 L -69.7096348,60.44418430000002 L -69.6740208,60.2492709 L -69.67918459999999,60.15589499999999 L -69.71847830000002,60.06163529999998 L -69.78880809999998,59.990121999999985 L -69.61943339999999,59.86155710000003 L -69.58625489999997,59.818496900000014 L -69.56657819999998,59.76345309999999 L -69.57921979999998,59.67167519999998 L -69.67449629999999,59.55016949999998 L -69.69633950000002,59.504337899999996 L -69.69840879999998,59.4512297 L -69.67902950000001,59.39751810000001 L -69.65384740000002,59.36660239999998 L -69.61269920000001,59.34368860000001 L -69.5561437,59.332004900000015 L -69.4413697,59.33043479999998 L -69.3570009,59.30842860000001 L -69.28853559999999,59.25833460000001 L -69.24570410000001,59.194229699999994 L -69.18749650000001,59.153480100000024 L -69.1538261,59.105472899999995 L -69.1596596,59.062494500000014 L -69.19998850000002,59.03025170000001 L -69.2764669,58.994528 L -69.573847,58.89092010000002 L -69.67009710000002,58.87948410000001 L -69.7798095,58.887455699999975 L -69.83240169999999,58.90180049999998 L -69.89449780000001,58.880521999999985 L -69.90548439999998,58.84922690000002 L -69.91948509999997,58.7853078 L -69.88130719999998,58.72473239999999 L -69.82861980000001,58.688253599999996 L -69.76523909999997,58.668478600000014 L -69.69182289999998,58.66813500000001 L -69.63091659999998,58.69072679999999 L -69.40234980000002,58.817827799999975 L -69.2285971,58.87623589999998 L -69.13684669999998,58.889711499999976 L -68.99131190000003,58.898615800000016 L -68.85856690000003,58.899701600000014 L -68.72988609999999,58.89110040000003 L -68.57477849999998,58.8590906 L -68.46517449999999,58.81186730000002 L -68.38934649999999,58.75424700000002 L -68.23381769999997,58.600104499999986 L -68.15706069999999,58.55941039999999 L -67.91358630000002,58.47896429999997 L -67.7808602,58.40532230000002 L -67.7260197,58.3593042 L -67.6747613,58.254346399999974 L -67.63652780000001,58.20979199999999 L -67.50517989999997,58.2450063 L -67.1165461,58.402098000000024 L -66.73627449999998,58.53094140000002 L -66.64283069999999,58.58861350000001 L -66.49692379999999,58.731964300000016 L -66.43212949999997,58.77579109999999 L -66.38333540000002,58.797327499999994 L -66.32445569999999,58.80358180000002 L -66.12601419999999,58.76568159999999 L -66.0411135,58.81754410000002 L -65.8792699,58.940275799999995 L -65.76020319999998,59.06585369999999 L -65.68049450000001,59.22976019999999 L -65.53204219999998,59.3993964 L -65.49203260000002,59.46175840000001 L -65.46833290000001,59.557908699999984 L -65.4647903,59.69174179999999 L -65.42199670000002,59.77987969999998 L -65.36732660000001,59.827957500000025 L -65.1400597,59.98382830000003 L -64.94667249999998,60.1976866 L -64.90058800000003,60.27826240000002 L -64.82005709999999,60.30747530000002 L -64.75732590000001,60.3094706 L -64.67759389999998,60.29563159999998 L -64.74254309999998,60.28132219999998 L -64.77825230000002,60.237836300000026 L -64.70340019999998,60.181277799999975 L -64.69099670000003,60.14631739999999 L -64.7190938,60.1018497 L -64.78849919999999,60.04882989999999 L -64.8043692,60.018249200000014 L -64.78778019999999,59.98692340000002 L -64.71876209999999,59.928673300000014 L -64.71630090000002,59.90089019999999 L -64.78877799999998,59.8093063 L -64.84978760000001,59.69913409999998 L -64.86584249999999,59.639281400000016 L -64.85828729999997,59.60028369999998 L -64.81954489999998,59.547661000000005 L -64.7534498,59.513128300000005 L -64.65966170000002,59.49117389999998 L -64.5335834,59.47859399999999 L -64.48573829999998,59.45031899999998 L -64.4810986,59.41685749999999 L -64.50546739999999,59.314186199999995 L -64.49668860000003,59.228978100000006 L -64.47449180000001,59.16717729999999 L -64.41084360000002,59.08558149999999 L -64.3994869,59.053988000000004 L -64.43099949999998,59.026923599999975 L -64.48863010000002,59.02137729999998 L -64.6824282,59.04034059999998 L -64.7716939,59.036465599999985 L -64.81430599999999,59.01961929999999 L -64.83200049999999,58.99231129999998 L -64.82263019999999,58.964045899999974 L -64.78875449999998,58.9415128 L -64.69985229999998,58.91533399999997 L -64.35937630000001,58.862859800000024 L -64.17284280000001,58.809125600000016 L -64.07502899999997,58.80668750000001 L -63.8182003,58.85138740000002 L -63.70601979999998,58.86112220000001 L -63.618072900000016,58.84839520000003 L -63.57950749999998,58.828492100000005 L -63.559411899999986,58.80043469999998 L -63.56518879999999,58.7671024 L -63.61917149999999,58.73906699999998 L -63.70720640000002,58.71846479999999 L -63.94304790000001,58.677630599999986 L -64.03278560000001,58.645808999999986 L -64.05799309999998,58.61763589999998 L -64.0541351,58.58913009999998 L -64.00690420000001,58.56114500000001 L -63.907602699999984,58.535304 L -63.874287200000026,58.50678770000002 L -63.875699,58.47143219999998 L -63.93193830000001,58.43229889999998 L -64.0904157,58.3715249 L -64.14492610000002,58.34251089999998 L -64.27428739999999,58.244776100000024 L -64.3661763,58.18871619999999 L -64.39251780000001,58.160174900000015 L -64.39866749999999,58.130885999999975 L -64.37231989999998,58.08776319999998 L -64.24471929999999,57.99999059999999 L -64.10650859999998,57.84659240000002 L -64.06137969999997,57.82117490000002 L -63.915858000000014,57.76070349999998 L -63.785039100000006,57.66505999999998 L -63.74548429999999,57.61147620000003 L -63.731967699999984,57.46153370000002 L -63.73753260000001,57.403609500000016 L -63.75755579999998,57.368891700000006 L -63.83662049999998,57.288536799999974 L -63.85703139999998,57.250788399999976 L -63.91357790000001,56.942714000000024 L -63.94642859999999,56.886919999999975 L -64.04767450000003,56.79408080000002 L -64.08694809999997,56.7226417 L -64.07891899999998,56.667502300000024 L -63.95900210000002,56.53620760000001 L -63.93893259999999,56.50311149999999 L -63.93526170000001,56.47358220000001 L -63.963628400000005,56.44801130000002 L -64.06875980000001,56.405940699999974 L -64.09135129999999,56.37939319999998 L -64.09739769999999,56.34849809999997 L -64.07646060000002,56.30429370000002 L -63.95835299999999,56.23334599999998 L -63.95044419999999,56.2011157 L -63.954500499999995,56.1505143 L -63.9119197,56.107715600000006 L -63.82233200000002,56.077388799999994 L -63.63174729999997,56.0402838 L -63.577992600000016,56.018270099999995 L -63.58734399999997,55.98546649999997 L -63.7406148,55.916618099999994 L -63.77363980000001,55.881481399999984 L -63.766535999999974,55.85369559999998 L -63.7234684,55.78757230000002 L -63.698738100000014,55.701735600000006 L -63.69382109999998,55.61264139999997 L -63.71632030000001,55.52427540000002 L -63.71765829999998,55.49204320000001 L -63.69783669999998,55.462947299999996 L -63.64614130000001,55.44151069999998 L -63.58967610000002,55.42967859999999 L -63.46407420000003,55.41136060000002 L -63.407187599999986,55.399379099999976 L -63.39563479999998,55.37095720000002 L -63.454231100000015,55.35483369999997 L -63.546761100000026,55.321034 L -63.57684219999999,55.296707200000014 L -63.576088700000014,55.26826970000002 L -63.53511040000001,55.225349600000015 L -63.526672700000006,55.19625550000001 L -63.57246939999999,54.99574230000002 L -63.59393970000002,54.96129789999998 L -63.62858319999998,54.938052200000016 L -63.758917,54.92280260000001 L -63.80558500000001,54.90633309999998 L -63.83697840000002,54.87645809999998 L -63.863122499999974,54.83065549999998 L -63.86293269999999,54.79225789999998 L -63.79458299999999,54.69692789999999 L -63.782069999999976,54.6541881 L -63.8087749,54.631334100000004 L -63.89088620000001,54.61351259999998 L -63.97445690000001,54.6136444 L -64.02829700000001,54.62263949999999 L -64.0854617,54.64501660000002 L -64.2195681,54.7162811 L -64.33292599999999,54.75285109999999 L -64.41948589999998,54.76099790000001 L -64.60291910000001,54.751086799999996 L -64.6912848,54.76704530000001 L -64.7699753,54.80067300000002 L -64.93375609999998,54.905436099999974 L -64.98384800000002,54.92170709999999 L -65.0371695,54.92954040000001 L -65.0878315,54.92727100000002 L -65.15586910000002,54.908031900000026 L -65.51287789999998,54.74697070000002 L -65.59785169999998,54.731472 L -65.68050840000001,54.73754869999999 L -65.75356720000002,54.773765000000026 L -65.8709111,54.886978399999975 L -65.91298619999998,54.91435009999998 L -65.96955079999998,54.93798650000002 L -66.25772339999997,55.03090470000001 L -66.33917650000001,55.077140799999995 L -66.58650870000002,55.250875199999996 L -66.66287649999998,55.2888274 L -66.72341130000001,55.30729769999999 L -66.78539439999997,55.299829999999986 L -66.78988909999998,55.26593750000001 L -66.75346380000002,55.047678099999985 L -66.64775309999999,54.8432449 L -66.65737330000002,54.793218000000024 L -66.70142199999998,54.7670784 L -66.76462900000001,54.765652999999986 L -66.87595470000002,54.799826499999995 L -66.95767910000001,54.84277109999999 L -67.18334909999999,54.998539900000026 L -67.25976379999997,55.042734800000005 L -67.319188,55.06151820000002 L -67.3721152,55.066022499999974 L -67.41435769999998,55.04401680000001 L -67.41303390000002,55.013823 L -67.3920109,54.969464500000015 L -67.32771330000003,54.8954741 L -67.1519793,54.74096179999998 L -67.1352283,54.7060118 L -67.13952590000002,54.671237700000006 L -67.25178929999998,54.55281059999999 L -67.2875965,54.52530100000001 L -67.33080239999998,54.51348100000001 L -67.45171240000002,54.50807579999997 L -67.55591120000003,54.49246879999998 L -67.6506872,54.464722600000016 L -67.70583579999999,54.433515399999976 L -67.7214917,54.388722400000006 L -67.68962340000002,54.2943664 L -67.68363060000001,54.23445349999997 L -67.70038319999998,54.19915320000001 L -67.77173249999998,54.116798500000016 L -67.7834224,54.06011169999999 L -67.7592899,54.009486100000004 L -67.61542109999999,53.88703959999998 L -67.51662349999998,53.75538610000001 L -67.3360108,53.60090980000001 L -67.2638667,53.562763700000005 L -67.08304800000002,53.51962120000002 L -67.03012819999998,53.50048570000001 L -66.96980969999998,53.462762 L -66.9376704,53.41847919999998 L -66.96580349999999,53.27686269999998 L -66.99491189999998,53.216859899999974 L -67.0255937,53.18385549999999 L -67.09414520000001,53.157743400000015 L -67.23324120000001,53.145435099999986 L -67.28611819999998,53.13508009999998 L -67.33211030000001,53.11313180000002 L -67.36212669999998,53.082539800000006 L -67.3727144,53.04450229999998 L -67.368495,53.00318629999998 L -67.34298960000001,52.94180269999998 L -67.31285960000002,52.90483499999999 L -67.22951519999998,52.84872530000001 L -67.04746870000002,52.77055039999999 L -66.93892440000002,52.73964380000001 L -66.88014800000002,52.73127790000001 L -66.8231788,52.73167339999998 L -66.76420680000001,52.74565480000001 L -66.69500879999998,52.784341600000005 L -66.6630973,52.819701699999996 L -66.61018460000003,52.921749499999976 L -66.5469632,52.977211599999976 L -66.50604499999997,52.99952760000002 L -66.45912879999997,53.01491119999997 L -66.39872279999997,53.00827850000002 L -66.34946639999998,52.982062799999994 L -66.3215563,52.951059799999996 L -66.30347920000003,52.91717449999999 L -66.2992989,52.88365759999999 L -66.32633279999999,52.81449220000002 L -66.3427269,52.73124130000002 L -66.40275980000001,52.631221900000014 L -66.4085599,52.59198359999999 L -66.39736099999999,52.44936990000002 L -66.457403,52.31451049999998 L -66.43773199999998,52.24437039999998 L -66.40796499999999,52.21201209999998 L -66.37336260000001,52.1852566 L -66.32506189999998,52.1847884 L -66.29075749999998,52.20976919999998 L -66.26243399999998,52.233590900000024 L -66.2123095,52.23393870000001 L -66.16947320000003,52.21522140000002 L -66.08507830000002,52.14787690000003 L -66.01778999999999,52.11264299999999 L -65.9636539,52.09981959999999 L -65.82787569999999,52.09537560000001 L -65.76671299999998,52.085655299999985 L -65.55640290000002,52.03485410000002 L -65.476313,52.00646369999998 L -65.41348399999998,51.967526299999975 L -65.20414590000001,51.8053041 L -65.137696,51.76918069999999 L -65.03238019999998,51.74440270000002 L -64.97996710000001,51.742369 L -64.87757620000002,51.750548400000014 L -64.80456980000002,51.74124710000001 L -64.72947640000001,51.7159461 L -64.5872991,51.64051230000001 L -64.53689000000003,51.62829909999999 L -64.45802370000001,51.63295249999999 L -64.4072056,51.6486883 L -64.36408549999999,51.6723983 L -64.32473069999998,51.71868039999998 L -64.3167411,51.754706 L -64.32932369999997,51.85949099999999 L -64.32397409999999,51.9470834 L -64.2522318,52.14248250000003 L -64.1951072,52.376848800000005 L -64.18820360000001,52.44180979999999 L -64.20336759999998,52.583673799999985 L -64.1707796,52.662178600000004 L -64.1168616,52.71005889999998 L -64.06784900000002,52.730288599999994 L -63.85547330000003,52.77916979999998 L -63.7071962,52.82467969999999 L -63.653389600000025,52.83448900000002 L -63.5925603,52.82446229999999 L -63.51005650000002,52.77580390000003 L -63.451231699999994,52.719942600000024 L -63.44632610000002,52.680626700000005 L -63.49093099999999,52.66079430000002 L -63.551913300000024,52.65098979999999 L -63.78799479999998,52.62652379999997 L -63.91286980000001,52.60023699999999 L -63.98350370000003,52.57082989999998 L -64.02215560000002,52.544499599999995 L -64.05000189999998,52.512699699999985 L -64.0617504,52.478794900000025 L -64.05420149999998,52.44593279999998 L -64.01730099999997,52.398481600000025 L -63.97789640000002,52.369298800000024 L -63.81018499999999,52.294084699999985 L -63.74507679999999,52.236323500000026 L -63.714346999999975,52.19654329999997 L -63.70551870000003,52.15655450000003 L -63.7122617,52.12614450000001 L -63.74819869999999,52.08481790000002 L -63.78878750000001,52.06491540000002 L -63.81226299999997,52.03361899999999 L -63.7992764,51.997680600000024 L -61.873966800000005,51.99615929999999 L -60.233301600000004,51.99716940000002 L -58.93839350000002,51.997292500000015 L -57.10775940000002,51.9984948 L -57.1517293,51.426842799999974 L -57.276153799999975,51.44935140000001 L -57.41897979999999,51.45783749999998 L -57.58980600000001,51.44471970000001 L -57.749170400000025,51.41752359999998 L -57.84785440000002,51.38925390000003 L -58.031728799999996,51.31229000000002 L -58.23929820000001,51.2481957 L -58.499866499999996,51.119505100000026 L -58.78336380000002,51.03014689999998 L -58.88758039999999,50.98621379999997 L -58.97244089999998,50.927624200000025 L -59.1374945,50.77311479999997 L -59.28234229999998,50.658995300000015 L -59.416225499999996,50.57613629999997 L -59.597103600000025,50.48388369999998 L -59.76595450000002,50.424148100000025 L -59.942440799999986,50.297335299999986 L -60.051183700000024,50.2482622 L -60.295854399999996,50.21495229999999 L -60.6567847,50.19277249999999 L -61.00044559999998,50.20528469999999 L -61.29192599999999,50.18821300000002 L -61.59243140000001,50.14957500000003 L -61.675192400000014,50.1471732 L -61.772415000000024,50.15648729999998 L -61.88835399999999,50.19007399999998 L -62.06374299999999,50.22548649999999 L -62.41605449999997,50.26852880000001 L -62.633106199999986,50.276411499999995 L -62.89429899999999,50.275088600000004 L -63.385737500000005,50.25209910000001 L -63.514462200000025,50.257142499999986 L -63.59981069999998,50.268494799999985 L -63.72784250000001,50.283093399999984 L -63.83461030000001,50.28479759999999 L -64.59697920000002,50.280571399999985 L -65.5595601,50.295585700000004 L -65.75009790000001,50.28212619999999 L -66.09818380000002,50.23450600000001 L -66.32357150000001,50.206571 L -66.37832989999998,50.202094699999975 L -66.62668819999999,50.159741499999996 L -66.80295109999997,50.083611399999995 L -66.87222739999999,50.0410675 L -67.15142959999997,49.770846800000015 L -67.19535580000002,49.7046254 L -67.2928061,49.47917189999998 L -67.3255077,49.43619580000001 L -67.38662549999998,49.38638159999999 L -67.46087610000001,49.34960030000002 L -67.58016759999998,49.31605020000001 L -67.68299769999999,49.301095299999986 L -67.99710520000002,49.27545509999999 L -68.10658990000002,49.252870299999984 L -68.16429090000003,49.229576899999984 L -68.2102693,49.190901499999995 L -68.32486180000001,49.111584900000025 L -68.5214603,49.043490399999996 L -68.73480039999998,48.93166980000001 L -68.9309376,48.82257670000001 L -69.04589720000001,48.74144030000002 L -69.36769070000003,48.4195259 L -69.69850309999998,48.13233409999998 L -69.90028840000002,47.83436210000002 L -69.99600809999998,47.73104719999998 L -70.2321584,47.54757280000001 L -70.48861099999999,47.37948920000002 L -70.7224802,47.15313450000002 L -71.0018096,46.976276299999995 L -71.16799739999999,46.83164820000002 L -70.88617690000001,46.90805940000001 L -70.65771139999998,46.98227259999999 L -70.51486010000002,47.04303909999999 L -70.37469800000002,47.123997599999996 L -70.18053359999999,47.27365980000002 L -69.9559322,47.468438100000014 L -69.43747180000003,47.95678909999998 L -69.18293849999998,48.14675549999998 L -68.96997149999999,48.28003000000001 L -68.6802988,48.42199219999998 L -68.1826433,48.63379090000001 L -67.57473290000001,48.84489639999998 L -67.53516300000001,48.85850140000002 L -67.11970919999999,48.98098470000002 L -66.7066216,49.089354000000014 L -66.33984959999998,49.16838100000001 L -66.04385000000002,49.217629199999976 L -65.7142943,49.25667549999997 L -65.48733099999998,49.26574190000002 L -65.24217970000001,49.2513108 L -64.99569120000001,49.21730280000003 L -64.8765467,49.191776000000004 L -64.70304959999999,49.1367659 L -64.43635660000001,49.019137899999976 L -64.34555799999998,48.964262599999984 L -64.27567370000003,48.9090051 L -64.25170370000001,48.834922199999994 L -64.31095429999999,48.79101309999999 L -64.34401409999998,48.75952080000002 L -64.30973920000002,48.72082640000002 L -64.24677220000001,48.677500099999975 L -64.2356719,48.6199623 L -64.25963039999999,48.57982629999998 L -64.29643270000003,48.54101379999997 L -64.39149270000001,48.46632060000002 L -64.48556079999997,48.4130189 L -64.59264680000001,48.36685319999998 L -64.6865095,48.3369184 L -64.88450360000002,48.199173900000005 L -65.00408099999999,48.1306955 L -65.13256940000002,48.07006039999999 L -65.2872284,48.02198550000003 L -65.39583160000001,48.01521709999997 L -65.48945739999999,48.03018370000001 L -65.64078189999998,48.07573830000001 L -65.79766610000001,48.146429599999976 L -65.90110879999997,48.17482890000002 L -65.95466160000001,48.17830040000001 L -66.08178420000002,48.13272330000001 L -66.37308890000003,48.08713399999999 L -66.4743628,48.0851409 L -66.52523159999998,48.05133699999999 L -66.67189739999998,48.01124040000002 L -66.78438640000002,47.99136729999998 L -66.86049600000001,47.99824760000001 L -66.9357632,47.97409060000001 L -67.06394669999997,47.9329161 L -67.18868809999998,47.87445869999999 L -67.37939440000002,47.86042789999999 L -67.60732789999997,47.93573459999999 L -67.5980788,47.99993549999999 L -68.1225915,47.99969629999998 L -68.12279289999998,47.91631910000001 L -68.3823342,47.91611690000002 L -68.38640900000001,47.551186900000005 L -68.5685747,47.427591199999995 L -68.7996281,47.34894200000002 L -69.05325779999998,47.29762449999998 L -69.0391995,47.41965800000003 L -69.22444810000002,47.4598297 L -69.46253109999998,47.22729770000001 L -69.99729960000002,46.69464829999998 L -70.0558216,46.419553699999994 L -70.17560830000002,46.35009009999999 L -70.23295359999997,46.279389200000026 L -70.25886459999998,46.2117159 L -70.28912930000001,46.0950828 L -70.29070209999998,46.0149419 L -70.2497793,45.92959930000001 L -70.27417809999997,45.875640499999975 L -70.42049450000002,45.74260029999999 L -70.59111289999998,45.63330430000002 L -70.64114319999999,45.59195749999998 L -70.66636979999998,45.562277800000004 L -70.6826393,45.52893449999999 L -70.68703099999999,45.46508779999999 L -70.7014408,45.43565380000001 L -70.73159429999998,45.4140481 L -70.7887407,45.38933370000001 L -70.80844029999997,45.363457600000004 L -70.8233396,45.32898340000003 L -70.84345530000002,45.30190779999998 L -70.8763093,45.288428599999975 L -70.92017870000001,45.28566410000002 L -71.0359709,45.31591589999999 L -71.0910098,45.31494090000001 L -71.17286810000002,45.27416149999999 L -71.21536229999998,45.26965710000002 L -71.3004401,45.28645599999999 L -71.34791089999999,45.27438310000002 L -71.39065979999998,45.25192049999998 L -71.418318,45.22271740000002 L -71.435766,45.15867429999997 L -71.45600940000003,45.119570099999976 L -71.50448449999999,45.01340019999998 L -72.3895468,45.002011400000015 L -73.34490310000001,45.010675400000025 L -74.15201689999998,44.99139259999998 L -74.6630556,44.998916699999995 z" /><path fill-rule="evenodd" fill="#66cc99" stroke="#555555" stroke-width="0.48602220263999985" opacity="0.6" d="M -64.48179959999999,49.88511629999999 L -64.38491679999998,49.90607899999998 L -64.27292089999997,49.91806009999999 L -64.05737679999999,49.91588389999998 L -63.328009699999996,49.80889780000001 L -63.0944293,49.75918840000003 L -62.844380899999976,49.688407600000005 L -62.56245430000001,49.58560640000002 L -62.20112640000002,49.418359399999986 L -61.86583869999998,49.28443650000003 L -61.77933350000001,49.23894369999999 L -61.7052132,49.1866119 L -61.71892939999998,49.15801190000002 L -61.75820060000001,49.136136299999976 L -61.86859989999999,49.10269490000002 L -61.99694169999998,49.08754060000001 L -62.13116980000001,49.086560299999974 L -62.7140096,49.150403299999994 L -62.87941110000003,49.1769486 L -63.039960199999996,49.21226680000001 L -63.1978823,49.262484700000016 L -63.38890070000002,49.34389390000001 L -63.521054100000015,49.41525660000002 L -63.750888799999984,49.56927489999998 L -63.86131119999999,49.63191119999999 L -64.3905676,49.83680559999999 L -64.48179959999999,49.88511629999999 z" /></g></g></svg>