<?xml version="1.0" encoding="UTF-8"?> <svg xmlns="http://www.w3.org/2000/svg" id="Layer_1" data-name="Layer 1" viewBox="0 0 237.71 62.23"><defs><style>.cls-1{fill:#993537;}.cls-2{fill:#fff;}.cls-3{fill:none;}</style></defs><path class="cls-1" d="M91.54,15.62H87a5,5,0,0,0-4.63-2.54c-3.52,0-6,2.51-6,6.43S78.89,26,82.55,26a5.34,5.34,0,0,0,5.58-4.54H81.37v-3H92v3.44a9.61,9.61,0,0,1-9.61,7.67,9.74,9.74,0,0,1-10.06-10,9.75,9.75,0,0,1,10-10.06C86.78,9.45,90.28,11.68,91.54,15.62Z"></path><path class="cls-1" d="M104.69,12.88H97.21v4.94h6.63V21H97.21v5.21h7.48v3.21H93.27V9.67h11.42Z"></path><path class="cls-1" d="M115.37,29.58a9.89,9.89,0,0,1-10.09-10.09,10.08,10.08,0,0,1,20.16,0A9.85,9.85,0,0,1,115.37,29.58Zm0-3.53c3.55,0,6-2.56,6-6.56s-2.46-6.52-6-6.52-6,2.51-6,6.52S111.79,26.05,115.37,26.05Z"></path><path class="cls-1" d="M142.77,25.63h-7.84l-1.3,3.75h-4.14l7.08-19.71h4.59l7.08,19.71h-4.18Zm-3.92-11.39L136,22.47h5.7Z"></path><path class="cls-1" d="M158.44,21.65c0-2.25-1.24-3.46-3.11-3.46s-3.16,1.21-3.16,3.46v7.74h-3.54v-14h3.54v1.74a5.22,5.22,0,0,1,4.22-1.94c3.26,0,5.59,2.12,5.59,6v8.22h-3.54Z"></path><path class="cls-1" d="M169.37,15.12A5.54,5.54,0,0,1,174,17.35v-2h3.56v14H174V27.31a5.55,5.55,0,0,1-4.66,2.27c-3.54,0-6.37-2.9-6.37-7.28S165.8,15.12,169.37,15.12ZM174,22.35c0-2.65-1.77-4.12-3.71-4.12a3.74,3.74,0,0,0-3.7,4.07c0,2.66,1.8,4.17,3.7,4.17S174,25,174,22.35Z"></path><path class="cls-1" d="M179.32,9.33h3.54V29.39h-3.54Z"></path><path class="cls-1" d="M194.6,15.29h3.77l-8.68,20.64h-3.77l3-7-5.62-13.66h4l3.62,9.79Z"></path><path class="cls-1" d="M199.61,18.29h-1.67V15.38h1.67V9.23h3.57v6.15h3.13v2.91h-3.13v6.77a1.37,1.37,0,0,0,1.49,1.34h1.64v3h-2.22c-1.76,0-4.48-1.75-4.48-4.35Z"></path><path class="cls-1" d="M207.4,9h3.54V12.2H207.4Zm0,6.34h3.54v14H207.4Z"></path><path class="cls-1" d="M219,15.14c3.49,0,5.84,1.82,6.6,5h-3.82a2.75,2.75,0,0,0-2.81-2c-2,0-3.28,1.5-3.28,4.23S217,26.57,219,26.57a2.67,2.67,0,0,0,2.81-1.92h3.82a6.39,6.39,0,0,1-6.6,5c-4,0-6.93-2.83-6.93-7.23S215,15.14,219,15.14Z"></path><path class="cls-1" d="M237.71,25.39c0,2.4-2.1,4.22-5.51,4.22s-6-2.05-6.12-4.65h3.56a2.33,2.33,0,0,0,2.53,1.87c1.39,0,2.15-.63,2.15-1.44,0-2.51-7.91-.91-7.91-6.05,0-2.33,2.07-4.2,5.53-4.2,3.07,0,5,1.52,5.54,3.87l-3.28.76A2.1,2.1,0,0,0,231.84,18c-1.31,0-2,.53-2,1.34C229.85,21.84,237.61,20.25,237.71,25.39Z"></path><path class="cls-1" d="M82.81,32c4.59,0,8.31,2.46,9.7,6.69H87.75a5.2,5.2,0,0,0-5-3c-3.6,0-6.18,2.63-6.18,6.83s2.58,6.83,6.18,6.83a5.17,5.17,0,0,0,5-3h4.76c-1.39,4.25-5.11,6.68-9.7,6.68A10.18,10.18,0,0,1,72.35,42.52,10.2,10.2,0,0,1,82.81,32Z"></path><path class="cls-1" d="M99.55,37.91a5.82,5.82,0,0,1,4.86,2.34v-2.1h3.74v14.7h-3.74V50.7a5.82,5.82,0,0,1-4.88,2.39c-3.72,0-6.69-3.05-6.69-7.64S95.81,37.91,99.55,37.91Zm4.86,7.59c0-2.78-1.86-4.32-3.9-4.32a3.91,3.91,0,0,0-3.87,4.27c0,2.78,1.88,4.37,3.87,4.37s3.9-1.53,3.9-4.32Z"></path><path class="cls-1" d="M120.32,44.76c0-2.36-1.3-3.63-3.27-3.63s-3.31,1.27-3.31,3.63v8.12H110V38.19h3.71V40A5.48,5.48,0,0,1,118.17,38c3.42,0,5.86,2.23,5.86,6.29v8.62h-3.71Z"></path><path class="cls-1" d="M131.78,37.91a5.8,5.8,0,0,1,4.85,2.34v-2.1h3.74v14.7h-3.74V50.7a5.79,5.79,0,0,1-4.88,2.39c-3.71,0-6.68-3.05-6.68-7.64S128,37.91,131.78,37.91Zm4.85,7.59c0-2.78-1.85-4.32-3.9-4.32a3.91,3.91,0,0,0-3.87,4.27c0,2.78,1.88,4.37,3.87,4.37s3.9-1.53,3.9-4.32Z"></path><path class="cls-1" d="M148.35,37.94a6,6,0,0,1,4.8,2.28V31.84h3.77v21h-3.77V50.7a5.53,5.53,0,0,1-4.82,2.41c-3.74,0-6.71-3-6.71-7.64S144.59,37.94,148.35,37.94Zm4.83,7.59c0-2.79-1.86-4.33-3.9-4.33a3.92,3.92,0,0,0-3.87,4.27c0,2.79,1.88,4.38,3.87,4.38s3.9-1.54,3.9-4.32Z"></path><path class="cls-1" d="M164.88,37.91a5.81,5.81,0,0,1,4.85,2.34v-2.1h3.74v14.7h-3.74V50.7a5.82,5.82,0,0,1-4.88,2.39c-3.71,0-6.69-3.05-6.69-7.64S161.14,37.91,164.88,37.91Zm4.85,7.59c0-2.78-1.86-4.32-3.9-4.32A3.91,3.91,0,0,0,162,45.45c0,2.78,1.88,4.37,3.87,4.37s3.9-1.53,3.9-4.32Z"></path><path class="cls-1" d="M33.31.09A31.05,31.05,0,0,0,.7,37.63l2,.4a1.31,1.31,0,0,0,1.52-.88l1.1-3.74,6.77,7.36C13,42,15,42,14.36,39.23L11.47,24.31l3.88,2c1.09.59,2.18.69,2.79-.36l5.36-9.71,5.37,9.71c.61,1.05,1.7,1,2.79.36l3.88-2L32.65,39.23C32,42,34,42,35,40.77l6.78-7.36,1.1,3.74a1.31,1.31,0,0,0,1.52.88l8.57-1.75-2.25,7.94c-.48,1.77-.86,2.5.48,3l3.06,1.39L39.46,60.21a1.85,1.85,0,0,0-.63.9,31.1,31.1,0,0,0-5.52-61Z"></path><path class="cls-2" d="M51.13,47.26c-1.34-.46-1-1.2-.48-3l2.25-7.95L44.33,38.1a1.3,1.3,0,0,1-1.52-.88l-1.1-3.74-6.78,7.36C34,42,32,42,32.62,39.3l2.9-14.92-3.89,1.95c-1.09.59-2.18.69-2.78-.36l-5.37-9.71L18.12,26c-.61,1.05-1.7,1-2.79.36l-3.88-1.95L14.34,39.3C15,42,13,42,12,40.84L5.26,33.48l-1.1,3.74a1.31,1.31,0,0,1-1.52.88L.53,37.67A31.06,31.06,0,0,0,33.31,62.13a30.63,30.63,0,0,0,5.47-.92,2,2,0,0,1,.66-.93L54.18,48.66Z"></path><path class="cls-1" d="M28.66,50.47l0-.2L22.2,52.7l0,.23-.06.44,6.62-2.51C28.71,50.73,28.68,50.6,28.66,50.47Z"></path><path class="cls-1" d="M15.8,55.55l-.21-.34-2,.77-.12.46c0,.08,0,.16,0,.24l2.51-1Z"></path><path class="cls-1" d="M17.64,54.85l.08.14,0,0,2.37-.9a1.43,1.43,0,0,1,0-.22l.06-.45-2.77,1Z"></path><path class="cls-1" d="M20.21,53.46l0-.21.06-.41-7-3.22L21,47v-.19l0-.16v-.09l0-.32-6.79-2.87,7.18-2.26.23.09c0-.13,0-.27.05-.4l-.27-.11-8.33,2.62h0L4.54,46h0l-.8.25c.06.12.13.24.2.36l.87-.28,7,3.22-4.66,1.6.28.32.13.15,5-1.72Zm-6.7-9.86,7,3-7.91,2.71L5.64,46.07Z"></path><path class="cls-1" d="M28.55,49.81c0-.15-.05-.31-.07-.46L22.9,47l0,.22,0,.19,0,.18L28.58,50Z"></path><path class="cls-1" d="M27.58,43.06l-4-1.58-.06.41,4.13,1.62C27.63,43.36,27.6,43.21,27.58,43.06Z"></path><path class="cls-1" d="M33.48,45.8l.12-.38-4-1.58c0,.15.05.3.07.45Z"></path><path class="cls-1" d="M27.75,44.24l0-.16-4.67,1.6,0,.18L23,46.3l4.82-1.66Z"></path><path class="cls-1" d="M30.45,49.79c0,.13.05.26.07.39l1.86-.7c0-.16.1-.32.14-.48l.07-.22-2.17.82Z"></path><path class="cls-1" d="M30.6,50.68a1.42,1.42,0,0,1,0,.2l1.13.48.06-.17c0-.12.08-.24.13-.37l-1.44-.61C30.55,50.37,30.58,50.52,30.6,50.68Z"></path><path class="cls-1" d="M47.16,50.76h0l-9.39-3.69-.07,0h0l-2.34-.92c0,.12-.07.25-.11.37l1.65.66-2.09.79-.06.22-.1.34,0,.13,3.09-1.17,8.42,3.31-7.18,3-5.23-2.22c0,.13-.09.26-.13.38l-.06.17,4.68,2-8,3.34-8.18-3.77-.06.4,0,.21,7.51,3.47L22,60.92l.6.17.37.1,7.32-3.08,7.33,3.39.34-.08.62-.15L31,57.79l8-3.37,5.13,2.18.16-.13.36-.28-4.91-2.07,7.2-3,2.79,1.1.36-.28Z"></path><path class="cls-1" d="M21.73,41.18c-.2,1.51-.4,3.19-.62,5l0,.32v.09h0l0,.16V47c-.22,1.84-.47,4-.72,5.86l-.06.41,0,.21h0l-.06.45a1.43,1.43,0,0,0,0,.22,24.89,24.89,0,0,1-.66,3.39A14.28,14.28,0,0,1,17.74,55l0,0-.08-.14-.2-.34c-1-1.69-2-3.17-3.3-3.17-1,0-1.67,1.14-2.43,4.24.54.43,1.09.83,1.65,1.22l0-.12c0-.08,0-.16,0-.24l.12-.46a12.65,12.65,0,0,1,.77-2.44,7.2,7.2,0,0,1,1.26,1.67l.21.34.1.17c.1.16.19.31.26.44,1.11,1.88,2.15,3.65,3.58,3.65,1.08,0,1.6-1.13,2.25-5.53l0-.21.06-.4c0-.1,0-.2,0-.3l.06-.44,0-.23c.19-1.42.4-3.12.64-5.13l0-.18,0-.19,0-.22c0-.22.06-.45.08-.68l.06-.44,0-.18c.14-1.19.29-2.49.46-3.79l.06-.41c.52-4,1.15-7.9,1.8-9C26.2,33.72,27,39,27.58,43.06c0,.15.05.3.07.45s.05.38.08.57l0,.16.05.4,0,.15c.24,1.77.45,3.28.65,4.56,0,.15.05.31.07.46l0,.2c0,.09,0,.18.05.26l0,.2c0,.13.05.26.07.39.6,3.47,1.14,4.71,2.23,4.71s1.77-1.17,2.56-3.46l.06-.17c0-.12.09-.25.13-.38.28-.84.57-1.82.9-2.93l0-.13.1-.34.06-.22c.13-.45.28-.95.44-1.45,0-.12.07-.25.11-.37a12.87,12.87,0,0,1,1.32-3.24c.55.13,1.36,1,2,1.79,1.06,1.2,2.15,2.43,3.47,2.43,1.08,0,2.14-1,3.22-2.16l.36-.4,1.42,1.27,3-8.28-7.27,4C44.21,42.8,44.43,43,44.43,43l-.38.42c-.71.77-1.48,1.53-1.88,1.53-.55,0-1.43-1-2.14-1.81C39,42,37.88,40.75,36.56,40.75s-2,1.59-3,4.67l-.12.38c-.19.62-.39,1.3-.61,2-.08.29-.18.61-.28,1l-.07.22c0,.16-.09.32-.14.48L32,50.82c-.05.13-.09.25-.13.37l-.06.17A13.36,13.36,0,0,1,31.11,53c-.15-.51-.31-1.25-.47-2.13a1.42,1.42,0,0,0,0-.2c0-.16-.05-.31-.08-.47v0c0-.13-.05-.26-.07-.39l0-.19c-.27-1.65-.53-3.53-.75-5.14l0-.17c0-.15,0-.3-.07-.45-1.32-9.5-2.15-13.68-4.23-13.68-1.73,0-2.58,3.15-3.57,10.62C21.76,40.91,21.75,41.05,21.73,41.18Z"></path><path class="cls-3" d="M54.18,48.66l-3-1.4c-1.34-.46-1-1.2-.48-3l2.25-7.95L44.33,38.1a1.3,1.3,0,0,1-1.52-.88l-1.1-3.74-6.78,7.36C34,42,32,42,32.62,39.3l2.9-14.92-3.89,1.95c-1.09.59-2.18.69-2.78-.36l-5.37-9.71L18.12,26c-.61,1.05-1.7,1-2.79.36l-3.88-1.95L14.34,39.3C15,42,13,42,12,40.84L5.26,33.48l-1.1,3.74a1.31,1.31,0,0,1-1.52.88l-2-.4A31,31,0,0,0,28.5,62.12a30.65,30.65,0,0,0,10.3-.94,1.92,1.92,0,0,1,.64-.9Z"></path><rect class="cls-2" x="40.41" y="11.72" width="5.39" height="6.89" transform="translate(4.65 39.85) rotate(-52.07)"></rect><path class="cls-2" d="M40.62,18.36c-1.49-1.16-3.37-1.23-4.21-.15L41.8,22.4c.83-1.07.3-2.88-1.18-4"></path><path class="cls-2" d="M38.86,21.89a.78.78,0,0,1-1.1.13.77.77,0,0,1-.13-1.09.78.78,0,1,1,1.23,1"></path><polygon class="cls-2" points="47.94 16.39 45.51 19.52 48.58 21.91 50.24 19.77 51.1 20.44 49.43 22.57 52.5 24.97 54.94 21.84 47.94 16.39"></polygon><polygon class="cls-2" points="37.89 13.58 40.32 10.46 37.4 8.18 35.74 10.32 34.92 9.69 36.59 7.55 33.67 5.28 31.24 8.4 37.89 13.58"></polygon></svg> 