<svg xmlns="http://www.w3.org/2000/svg" xmlns:xlink="http://www.w3.org/1999/xlink" width="100.0" height="100.0" viewBox="-73.23588333729792 45.49212255339407 0.00045455080034173534 0.00032968691176193943" preserveAspectRatio="xMinYMin meet"><g transform="matrix(1,0,0,-1,0,90.98457479369989)"><path fill-rule="evenodd" fill="#66cc99" stroke="#555555" stroke-width="9.091016006834707e-06" opacity="0.6" d="M -73.2356514389898,45.492435405091 L -73.2356149665738,45.4924325919066 L -73.235579742828,45.4924253670331 L -73.2355468380151,45.4924139499964 L -73.2355172519364,45.4923986876998 L -73.2354918835523,45.4923800438833 L -73.2354715036678,45.492358585033 L -73.2354567315119,45.4923349631678 L -73.2354480159231,45.4923098960283 L -73.2354456217124,45.4922841452681 L -73.235449621618,45.4922584933113 L -73.2354598940966,45.4922337195789 L -73.2354761270167,45.4922105768064 L -73.2354978271442,45.4921897681728 L -73.2355243351294,45.4921719259351 L -73.2355548455411,45.4921575922174 L -73.2355884313393,45.49214720254 L -73.2356240720425,45.4921410725857 L -73.2356606847337,45.4921393886089 L -73.2356971569635,45.492142201776 L -73.23573238055,45.4921494266111 L -73.2357652852495,45.4921608435931 L -73.2357948712745,45.4921761058252 L -73.2358202396711,45.4921947495751 L -73.2358406196327,45.4922162083649 L -73.2358553919211,45.4922398301828 L -73.2358641076818,45.4922648972941 L -73.2358665020831,45.4922906480484 L -73.2358625023636,45.4923163000225 L -73.2358522300445,45.4923410737932 L -73.2358359972377,45.4923642166204 L -73.2358142971638,45.4923850253185 L -73.2357877891661,45.4924028676228 L -73.2357572786773,45.492417201401 L -73.2357236927466,45.4924275911257 L -73.2356880518716,45.4924337211082 L -73.2356514389898,45.492435405091 z" /></g></svg>